<mxfile host="drawio-plugin" modified="2021-07-15T10:04:02.506Z" agent="5.0 (Macintosh; Intel Mac OS X 11_2_1) AppleWebKit/537.36 (KHTML, like Gecko) Chrome/89.0.4389.90 Safari/537.36" etag="x2JpZpwc5KlZ8ohDlKah" version="14.7.4" type="embed" pages="2"><diagram id="TYB7NlHMd5oe03PsHszr" name="Page-1"><mxGraphModel dx="1509" dy="1500" grid="1" gridSize="10" guides="1" tooltips="1" connect="1" arrows="1" fold="1" page="1" pageScale="1" pageWidth="850" pageHeight="1100" math="0" shadow="0"><root><mxCell id="0"/><mxCell id="1" parent="0"/><mxCell id="WyWNNFV66O9a_59nUiUJ-68" value="" style="rounded=1;whiteSpace=wrap;html=1;absoluteArcSize=1;arcSize=14;strokeWidth=2;fontFamily=jetBrain mono;fillColor=#dae8fc;strokeColor=#6c8ebf;" parent="1" vertex="1"><mxGeometry x="950" y="202" width="130" height="480" as="geometry"/></mxCell><mxCell id="4" style="edgeStyle=orthogonalEdgeStyle;rounded=0;orthogonalLoop=1;jettySize=auto;html=1;exitX=0.5;exitY=1;exitDx=0;exitDy=0;exitPerimeter=0;entryX=0.5;entryY=0;entryDx=0;entryDy=0;fontFamily=jetBrain mono;" parent="1" source="2" target="3" edge="1"><mxGeometry relative="1" as="geometry"/></mxCell><mxCell id="2" value="forward phase" style="strokeWidth=2;html=1;shape=mxgraph.flowchart.start_1;whiteSpace=wrap;fontFamily=jetBrain mono;" parent="1" vertex="1"><mxGeometry x="290" y="-51" width="100" height="60" as="geometry"/></mxCell><mxCell id="QfUh4EndtHl3aRKbC8a_-70" style="edgeStyle=orthogonalEdgeStyle;rounded=0;orthogonalLoop=1;jettySize=auto;html=1;exitX=0.5;exitY=1;exitDx=0;exitDy=0;entryX=0.5;entryY=0;entryDx=0;entryDy=0;fontFamily=jetBrain mono;" parent="1" source="3" target="QfUh4EndtHl3aRKbC8a_-69" edge="1"><mxGeometry relative="1" as="geometry"/></mxCell><mxCell id="3" value="get the matrix&lt;br&gt;this" style="shape=parallelogram;html=1;strokeWidth=2;perimeter=parallelogramPerimeter;whiteSpace=wrap;rounded=1;arcSize=12;size=0.23;fontFamily=jetBrain mono;" parent="1" vertex="1"><mxGeometry x="252.5" y="19" width="175" height="40" as="geometry"/></mxCell><mxCell id="54" style="rounded=0;orthogonalLoop=1;jettySize=auto;html=1;exitX=1;exitY=0;exitDx=0;exitDy=0;entryX=0;entryY=0.5;entryDx=0;entryDy=0;dashed=1;dashPattern=1 1;fontFamily=jetBrain mono;" parent="1" source="7" target="53" edge="1"><mxGeometry relative="1" as="geometry"/></mxCell><mxCell id="I2d7XPufysfukBxukfIx-80" style="edgeStyle=none;rounded=0;orthogonalLoop=1;jettySize=auto;html=1;exitX=0.5;exitY=1;exitDx=0;exitDy=0;entryX=0.5;entryY=0;entryDx=0;entryDy=0;entryPerimeter=0;" parent="1" source="7" target="I2d7XPufysfukBxukfIx-77" edge="1"><mxGeometry relative="1" as="geometry"/></mxCell><mxCell id="7" value="check from tR = topR;&lt;br&gt;" style="rounded=1;whiteSpace=wrap;html=1;absoluteArcSize=1;arcSize=14;strokeWidth=2;fontFamily=jetBrain mono;" parent="1" vertex="1"><mxGeometry x="220" y="198" width="240" height="22" as="geometry"/></mxCell><mxCell id="10" style="edgeStyle=orthogonalEdgeStyle;rounded=0;orthogonalLoop=1;jettySize=auto;html=1;exitX=0.5;exitY=1;exitDx=0;exitDy=0;entryX=0.5;entryY=0;entryDx=0;entryDy=0;" parent="1" source="8" target="7" edge="1"><mxGeometry relative="1" as="geometry"/></mxCell><mxCell id="49" style="rounded=0;orthogonalLoop=1;jettySize=auto;html=1;exitX=1;exitY=0.5;exitDx=0;exitDy=0;fontFamily=jetBrain mono;dashed=1;dashPattern=1 1;" parent="1" source="8" target="38" edge="1"><mxGeometry relative="1" as="geometry"/></mxCell><mxCell id="50" style="rounded=0;orthogonalLoop=1;jettySize=auto;html=1;exitX=1;exitY=0.5;exitDx=0;exitDy=0;entryX=0;entryY=0.5;entryDx=0;entryDy=0;fontFamily=jetBrain mono;dashed=1;dashPattern=1 1;" parent="1" source="8" target="39" edge="1"><mxGeometry relative="1" as="geometry"/></mxCell><mxCell id="8" value="iC = 0, topR = iC,&amp;nbsp;&lt;br&gt;iC &amp;lt; co" style="rounded=1;whiteSpace=wrap;html=1;absoluteArcSize=1;arcSize=14;strokeWidth=2;fontFamily=jetBrain mono;" parent="1" vertex="1"><mxGeometry x="255" y="140" width="170" height="30" as="geometry"/></mxCell><mxCell id="14" value="yes" style="edgeStyle=orthogonalEdgeStyle;rounded=0;orthogonalLoop=1;jettySize=auto;html=1;exitX=0.5;exitY=1;exitDx=0;exitDy=0;exitPerimeter=0;entryX=0.5;entryY=0;entryDx=0;entryDy=0;fontFamily=jetBrain mono;" parent="1" source="11" target="12" edge="1"><mxGeometry relative="1" as="geometry"/></mxCell><mxCell id="n12TIJvR7vaUISz7xpl9-78" value="no" style="edgeStyle=orthogonalEdgeStyle;rounded=0;orthogonalLoop=1;jettySize=auto;html=1;exitX=1;exitY=0.5;exitDx=0;exitDy=0;exitPerimeter=0;entryX=0.5;entryY=1;entryDx=0;entryDy=0;fontFamily=jetBrain mono;entryPerimeter=0;" parent="1" source="11" target="I2d7XPufysfukBxukfIx-93" edge="1"><mxGeometry relative="1" as="geometry"/></mxCell><mxCell id="11" value="ma[tR][iC] ≠ 0" style="strokeWidth=2;html=1;shape=mxgraph.flowchart.decision;whiteSpace=wrap;fontFamily=jetBrain mono;" parent="1" vertex="1"><mxGeometry x="265" y="432" width="150" height="30" as="geometry"/></mxCell><mxCell id="19" style="edgeStyle=orthogonalEdgeStyle;rounded=0;orthogonalLoop=1;jettySize=auto;html=1;exitX=0.5;exitY=1;exitDx=0;exitDy=0;fontFamily=jetBrain mono;" parent="1" target="17" edge="1"><mxGeometry relative="1" as="geometry"><mxPoint x="340" y="504" as="sourcePoint"/></mxGeometry></mxCell><mxCell id="56" style="rounded=0;orthogonalLoop=1;jettySize=auto;html=1;exitX=1;exitY=0.5;exitDx=0;exitDy=0;entryX=0;entryY=0.5;entryDx=0;entryDy=0;dashed=1;dashPattern=1 1;fontFamily=jetBrain mono;" parent="1" source="12" target="53" edge="1"><mxGeometry relative="1" as="geometry"/></mxCell><mxCell id="61" style="rounded=0;orthogonalLoop=1;jettySize=auto;html=1;exitX=1;exitY=0.5;exitDx=0;exitDy=0;entryX=0;entryY=0.75;entryDx=0;entryDy=0;dashed=1;dashPattern=1 1;fontFamily=jetBrain mono;" parent="1" source="12" target="44" edge="1"><mxGeometry relative="1" as="geometry"/></mxCell><mxCell id="70" style="rounded=0;orthogonalLoop=1;jettySize=auto;html=1;exitX=1;exitY=0;exitDx=0;exitDy=0;entryX=0;entryY=0.5;entryDx=0;entryDy=0;dashed=1;dashPattern=1 1;fontFamily=jetBrain mono;" parent="1" source="12" target="QfUh4EndtHl3aRKbC8a_-73" edge="1"><mxGeometry relative="1" as="geometry"/></mxCell><mxCell id="12" value="swap row tR with row top;&lt;br&gt;make the pivot ma[topR][iC] 1&lt;br&gt;by dividing all elements in row by ma[topR][iC]&lt;br&gt;piC.add(iC)&lt;br&gt;break" style="rounded=1;whiteSpace=wrap;html=1;absoluteArcSize=1;arcSize=14;strokeWidth=2;fontFamily=jetBrain mono;" parent="1" vertex="1"><mxGeometry x="170" y="482" width="340" height="90" as="geometry"/></mxCell><mxCell id="20" style="edgeStyle=orthogonalEdgeStyle;rounded=0;orthogonalLoop=1;jettySize=auto;html=1;exitX=0.5;exitY=1;exitDx=0;exitDy=0;entryX=0.5;entryY=0;entryDx=0;entryDy=0;entryPerimeter=0;fontFamily=jetBrain mono;" parent="1" source="17" target="18" edge="1"><mxGeometry relative="1" as="geometry"/></mxCell><mxCell id="59" style="rounded=0;orthogonalLoop=1;jettySize=auto;html=1;exitX=1;exitY=0;exitDx=0;exitDy=0;entryX=0;entryY=0.5;entryDx=0;entryDy=0;dashed=1;dashPattern=1 1;fontFamily=jetBrain mono;" parent="1" source="17" target="41" edge="1"><mxGeometry relative="1" as="geometry"/></mxCell><mxCell id="17" value="checkR = topR + 1" style="rounded=1;whiteSpace=wrap;html=1;absoluteArcSize=1;arcSize=14;strokeWidth=2;fontFamily=jetBrain mono;" parent="1" vertex="1"><mxGeometry x="185" y="612" width="310" height="20" as="geometry"/></mxCell><mxCell id="22" value="yes" style="edgeStyle=orthogonalEdgeStyle;rounded=0;orthogonalLoop=1;jettySize=auto;html=1;exitX=0.5;exitY=1;exitDx=0;exitDy=0;exitPerimeter=0;entryX=0.5;entryY=0;entryDx=0;entryDy=0;fontFamily=jetBrain mono;" parent="1" source="18" target="21" edge="1"><mxGeometry relative="1" as="geometry"/></mxCell><mxCell id="26" value="no" style="edgeStyle=orthogonalEdgeStyle;rounded=0;orthogonalLoop=1;jettySize=auto;html=1;exitX=1;exitY=0.5;exitDx=0;exitDy=0;exitPerimeter=0;entryX=1;entryY=0.5;entryDx=0;entryDy=0;entryPerimeter=0;fontFamily=jetBrain mono;" parent="1" source="18" target="23" edge="1"><mxGeometry relative="1" as="geometry"/></mxCell><mxCell id="18" value="&lt;span style=&quot;color: rgb(0 , 0 , 0) ; font-family: &amp;#34;jetbrain mono&amp;#34; ; font-size: 12px ; font-style: normal ; font-weight: 400 ; letter-spacing: normal ; text-align: center ; text-indent: 0px ; text-transform: none ; word-spacing: 0px ; background-color: rgb(248 , 249 , 250) ; display: inline ; float: none&quot;&gt;ma[checkR][iC] ≠ 0&lt;/span&gt;" style="strokeWidth=2;html=1;shape=mxgraph.flowchart.decision;whiteSpace=wrap;fontFamily=jetBrain mono;" parent="1" vertex="1"><mxGeometry x="185" y="652" width="310" height="30" as="geometry"/></mxCell><mxCell id="25" style="edgeStyle=orthogonalEdgeStyle;rounded=0;orthogonalLoop=1;jettySize=auto;html=1;exitX=0.5;exitY=1;exitDx=0;exitDy=0;fontFamily=jetBrain mono;" parent="1" source="21" target="rnxVdnb5L2Rb5vySqwHI-69" edge="1"><mxGeometry relative="1" as="geometry"/></mxCell><mxCell id="62" style="rounded=0;orthogonalLoop=1;jettySize=auto;html=1;exitX=1;exitY=0;exitDx=0;exitDy=0;entryX=0;entryY=0.5;entryDx=0;entryDy=0;dashed=1;dashPattern=1 1;fontFamily=jetBrain mono;" parent="1" source="21" target="39" edge="1"><mxGeometry relative="1" as="geometry"/></mxCell><mxCell id="64" style="rounded=0;orthogonalLoop=1;jettySize=auto;html=1;exitX=1;exitY=0;exitDx=0;exitDy=0;entryX=0;entryY=0.75;entryDx=0;entryDy=0;dashed=1;dashPattern=1 1;fontFamily=jetBrain mono;" parent="1" source="21" target="44" edge="1"><mxGeometry relative="1" as="geometry"/></mxCell><mxCell id="21" value="subtract ma[checkR][iC] * ma[topR][]" style="rounded=1;whiteSpace=wrap;html=1;absoluteArcSize=1;arcSize=14;strokeWidth=2;fontFamily=jetBrain mono;" parent="1" vertex="1"><mxGeometry x="200" y="702" width="280" height="30" as="geometry"/></mxCell><mxCell id="27" value="no" style="edgeStyle=orthogonalEdgeStyle;rounded=0;orthogonalLoop=1;jettySize=auto;html=1;exitX=0;exitY=0.5;exitDx=0;exitDy=0;exitPerimeter=0;entryX=0.5;entryY=1;entryDx=0;entryDy=0;fontFamily=jetBrain mono;" parent="1" source="23" target="29" edge="1"><mxGeometry relative="1" as="geometry"/></mxCell><mxCell id="33" value="yes&lt;br&gt;break" style="edgeStyle=orthogonalEdgeStyle;rounded=0;orthogonalLoop=1;jettySize=auto;html=1;exitX=0.5;exitY=1;exitDx=0;exitDy=0;exitPerimeter=0;fontFamily=jetBrain mono;" parent="1" source="23" target="28" edge="1"><mxGeometry relative="1" as="geometry"><mxPoint as="offset"/></mxGeometry></mxCell><mxCell id="23" value="checkR == ro - 1" style="strokeWidth=2;html=1;shape=mxgraph.flowchart.decision;whiteSpace=wrap;fontFamily=jetBrain mono;" parent="1" vertex="1"><mxGeometry x="260" y="810" width="160" height="40" as="geometry"/></mxCell><mxCell id="35" value="no" style="edgeStyle=orthogonalEdgeStyle;rounded=0;orthogonalLoop=1;jettySize=auto;html=1;exitX=1;exitY=0.5;exitDx=0;exitDy=0;exitPerimeter=0;fontFamily=jetBrain mono;" parent="1" source="28" target="34" edge="1"><mxGeometry relative="1" as="geometry"/></mxCell><mxCell id="67" value="yes&lt;br&gt;break" style="edgeStyle=orthogonalEdgeStyle;rounded=0;orthogonalLoop=1;jettySize=auto;html=1;exitX=0.5;exitY=1;exitDx=0;exitDy=0;exitPerimeter=0;entryX=0.5;entryY=0;entryDx=0;entryDy=0;entryPerimeter=0;fontFamily=jetBrain mono;" parent="1" source="28" target="66" edge="1"><mxGeometry x="-0.2" relative="1" as="geometry"><mxPoint as="offset"/></mxGeometry></mxCell><mxCell id="28" value="topR == ro - 1" style="strokeWidth=2;html=1;shape=mxgraph.flowchart.decision;whiteSpace=wrap;fontFamily=jetBrain mono;" parent="1" vertex="1"><mxGeometry x="260" y="890" width="160" height="40" as="geometry"/></mxCell><mxCell id="32" style="edgeStyle=orthogonalEdgeStyle;rounded=0;orthogonalLoop=1;jettySize=auto;html=1;exitX=0.5;exitY=0;exitDx=0;exitDy=0;entryX=0;entryY=0.5;entryDx=0;entryDy=0;fontFamily=jetBrain mono;entryPerimeter=0;" parent="1" source="29" target="18" edge="1"><mxGeometry relative="1" as="geometry"/></mxCell><mxCell id="63" style="rounded=0;orthogonalLoop=1;jettySize=auto;html=1;exitX=1;exitY=1;exitDx=0;exitDy=0;entryX=0;entryY=0.5;entryDx=0;entryDy=0;dashed=1;dashPattern=1 1;fontFamily=jetBrain mono;" parent="1" source="29" target="41" edge="1"><mxGeometry relative="1" as="geometry"/></mxCell><mxCell id="29" value="checkR++" style="rounded=1;whiteSpace=wrap;html=1;absoluteArcSize=1;arcSize=14;strokeWidth=2;fontFamily=jetBrain mono;" parent="1" vertex="1"><mxGeometry x="60" y="692" width="100" height="60" as="geometry"/></mxCell><mxCell id="36" style="edgeStyle=orthogonalEdgeStyle;rounded=0;orthogonalLoop=1;jettySize=auto;html=1;exitX=0.5;exitY=0;exitDx=0;exitDy=0;entryX=1;entryY=0.5;entryDx=0;entryDy=0;fontFamily=jetBrain mono;" parent="1" source="34" target="7" edge="1"><mxGeometry relative="1" as="geometry"/></mxCell><mxCell id="46" style="edgeStyle=orthogonalEdgeStyle;rounded=0;orthogonalLoop=1;jettySize=auto;html=1;exitX=0;exitY=0.5;exitDx=0;exitDy=0;entryX=1;entryY=0.25;entryDx=0;entryDy=0;fontFamily=jetBrain mono;" parent="1" source="37" target="42" edge="1"><mxGeometry relative="1" as="geometry"><Array as="points"><mxPoint x="1050" y="122"/><mxPoint x="1050" y="48"/></Array></mxGeometry></mxCell><mxCell id="47" style="edgeStyle=orthogonalEdgeStyle;rounded=0;orthogonalLoop=1;jettySize=auto;html=1;exitX=0;exitY=0.5;exitDx=0;exitDy=0;entryX=1;entryY=0.5;entryDx=0;entryDy=0;fontFamily=jetBrain mono;" parent="1" source="37" target="43" edge="1"><mxGeometry relative="1" as="geometry"/></mxCell><mxCell id="48" style="edgeStyle=orthogonalEdgeStyle;rounded=0;orthogonalLoop=1;jettySize=auto;html=1;exitX=0;exitY=0.5;exitDx=0;exitDy=0;entryX=1;entryY=0.75;entryDx=0;entryDy=0;fontFamily=jetBrain mono;" parent="1" source="37" target="44" edge="1"><mxGeometry relative="1" as="geometry"/></mxCell><mxCell id="37" value="this" style="shape=parallelogram;html=1;strokeWidth=2;perimeter=parallelogramPerimeter;whiteSpace=wrap;rounded=1;arcSize=12;size=0.23;fontFamily=jetBrain mono;" parent="1" vertex="1"><mxGeometry x="1080" y="92" width="100" height="60" as="geometry"/></mxCell><mxCell id="38" value="iC" style="shape=parallelogram;html=1;strokeWidth=2;perimeter=parallelogramPerimeter;whiteSpace=wrap;rounded=1;arcSize=12;size=0.23;fontFamily=jetBrain mono;" parent="1" vertex="1"><mxGeometry x="970" y="222" width="100" height="60" as="geometry"/></mxCell><mxCell id="39" value="topR" style="shape=parallelogram;html=1;strokeWidth=2;perimeter=parallelogramPerimeter;whiteSpace=wrap;rounded=1;arcSize=12;size=0.23;fontFamily=jetBrain mono;" parent="1" vertex="1"><mxGeometry x="960" y="322" width="100" height="60" as="geometry"/></mxCell><mxCell id="41" value="checkR" style="shape=parallelogram;html=1;strokeWidth=2;perimeter=parallelogramPerimeter;whiteSpace=wrap;rounded=1;arcSize=12;size=0.23;fontFamily=jetBrain mono;" parent="1" vertex="1"><mxGeometry x="960" y="522" width="100" height="60" as="geometry"/></mxCell><mxCell id="42" value="ro" style="shape=parallelogram;html=1;strokeWidth=2;perimeter=parallelogramPerimeter;whiteSpace=wrap;rounded=1;arcSize=12;size=0.23;fontFamily=jetBrain mono;" parent="1" vertex="1"><mxGeometry x="920" y="42" width="100" height="20" as="geometry"/></mxCell><mxCell id="43" value="co" style="shape=parallelogram;html=1;strokeWidth=2;perimeter=parallelogramPerimeter;whiteSpace=wrap;rounded=1;arcSize=12;size=0.23;fontFamily=jetBrain mono;" parent="1" vertex="1"><mxGeometry x="910" y="82" width="100" height="20" as="geometry"/></mxCell><mxCell id="44" value="ma" style="shape=parallelogram;html=1;strokeWidth=2;perimeter=parallelogramPerimeter;whiteSpace=wrap;rounded=1;arcSize=12;size=0.23;fontFamily=jetBrain mono;" parent="1" vertex="1"><mxGeometry x="910" y="122" width="100" height="20" as="geometry"/></mxCell><mxCell id="53" value="tR" style="shape=parallelogram;html=1;strokeWidth=2;perimeter=parallelogramPerimeter;whiteSpace=wrap;rounded=1;arcSize=12;size=0.23;fontFamily=jetBrain mono;" parent="1" vertex="1"><mxGeometry x="960" y="612" width="100" height="60" as="geometry"/></mxCell><mxCell id="66" value="end" style="strokeWidth=2;html=1;shape=mxgraph.flowchart.terminator;whiteSpace=wrap;fontFamily=jetBrain mono;" parent="1" vertex="1"><mxGeometry x="290" y="980" width="100" height="20" as="geometry"/></mxCell><mxCell id="68" style="edgeStyle=orthogonalEdgeStyle;rounded=0;orthogonalLoop=1;jettySize=auto;html=1;exitX=0.5;exitY=1;exitDx=0;exitDy=0;exitPerimeter=0;fontFamily=jetBrain mono;" parent="1" source="66" target="66" edge="1"><mxGeometry relative="1" as="geometry"/></mxCell><mxCell id="n12TIJvR7vaUISz7xpl9-68" style="edgeStyle=orthogonalEdgeStyle;rounded=0;orthogonalLoop=1;jettySize=auto;html=1;exitX=0.5;exitY=1;exitDx=0;exitDy=0;entryX=0.5;entryY=0;entryDx=0;entryDy=0;entryPerimeter=0;fontFamily=jetBrain mono;" parent="1" source="rnxVdnb5L2Rb5vySqwHI-69" target="23" edge="1"><mxGeometry relative="1" as="geometry"/></mxCell><mxCell id="rnxVdnb5L2Rb5vySqwHI-69" value="topR++" style="rounded=1;whiteSpace=wrap;html=1;absoluteArcSize=1;arcSize=14;strokeWidth=2;fontFamily=jetBrain mono;" parent="1" vertex="1"><mxGeometry x="290" y="752" width="100" height="20" as="geometry"/></mxCell><mxCell id="76" style="edgeStyle=none;rounded=0;orthogonalLoop=1;jettySize=auto;html=1;exitX=1;exitY=0;exitDx=0;exitDy=0;entryX=0;entryY=0.25;entryDx=0;entryDy=0;dashed=1;dashPattern=1 1;" edge="1" parent="1" source="34" target="38"><mxGeometry relative="1" as="geometry"/></mxCell><mxCell id="34" value="iC++" style="rounded=1;whiteSpace=wrap;html=1;absoluteArcSize=1;arcSize=14;strokeWidth=2;fontFamily=jetBrain mono;" parent="1" vertex="1"><mxGeometry x="720" y="294" width="100" height="50" as="geometry"/></mxCell><mxCell id="rnxVdnb5L2Rb5vySqwHI-71" value="" style="rounded=0;orthogonalLoop=1;jettySize=auto;html=1;exitX=1;exitY=0;exitDx=0;exitDy=0;entryX=0;entryY=0.5;entryDx=0;entryDy=0;fontFamily=jetBrain mono;dashed=1;dashPattern=1 1;endArrow=none;" parent="1" source="7" target="34" edge="1"><mxGeometry relative="1" as="geometry"><mxPoint x="460" y="198" as="sourcePoint"/><mxPoint x="811.5000000000005" y="428" as="targetPoint"/></mxGeometry></mxCell><mxCell id="QfUh4EndtHl3aRKbC8a_-71" style="edgeStyle=orthogonalEdgeStyle;rounded=0;orthogonalLoop=1;jettySize=auto;html=1;exitX=0.5;exitY=1;exitDx=0;exitDy=0;entryX=0.5;entryY=0;entryDx=0;entryDy=0;fontFamily=jetBrain mono;" parent="1" source="QfUh4EndtHl3aRKbC8a_-69" target="8" edge="1"><mxGeometry relative="1" as="geometry"/></mxCell><mxCell id="QfUh4EndtHl3aRKbC8a_-74" style="rounded=0;orthogonalLoop=1;jettySize=auto;html=1;exitX=1;exitY=0;exitDx=0;exitDy=0;entryX=0;entryY=0.5;entryDx=0;entryDy=0;fontFamily=jetBrain mono;dashed=1;dashPattern=1 1;" parent="1" source="QfUh4EndtHl3aRKbC8a_-69" target="QfUh4EndtHl3aRKbC8a_-73" edge="1"><mxGeometry relative="1" as="geometry"/></mxCell><mxCell id="QfUh4EndtHl3aRKbC8a_-69" value="ListArray piC" style="rounded=1;whiteSpace=wrap;html=1;absoluteArcSize=1;arcSize=14;strokeWidth=2;fontFamily=jetBrain mono;" parent="1" vertex="1"><mxGeometry x="290" y="73" width="100" height="40" as="geometry"/></mxCell><mxCell id="QfUh4EndtHl3aRKbC8a_-73" value="piC" style="shape=parallelogram;html=1;strokeWidth=2;perimeter=parallelogramPerimeter;whiteSpace=wrap;rounded=1;arcSize=12;size=0.23;fontFamily=jetBrain mono;" parent="1" vertex="1"><mxGeometry x="1100" y="222" width="100" height="60" as="geometry"/></mxCell><mxCell id="n12TIJvR7vaUISz7xpl9-77" value="no" style="edgeStyle=orthogonalEdgeStyle;rounded=0;orthogonalLoop=1;jettySize=auto;html=1;exitX=0.5;exitY=0;exitDx=0;exitDy=0;exitPerimeter=0;fontFamily=jetBrain mono;entryX=0.5;entryY=0;entryDx=0;entryDy=0;" parent="1" source="I2d7XPufysfukBxukfIx-95" target="71" edge="1"><mxGeometry x="-0.1228" relative="1" as="geometry"><Array as="points"><mxPoint x="580" y="365"/><mxPoint x="580" y="308"/></Array><mxPoint x="590" y="410" as="targetPoint"/><mxPoint as="offset"/></mxGeometry></mxCell><mxCell id="73" style="rounded=0;orthogonalLoop=1;jettySize=auto;html=1;exitX=1;exitY=0;exitDx=0;exitDy=0;entryX=0;entryY=0.5;entryDx=0;entryDy=0;dashed=1;dashPattern=1 1;" edge="1" parent="1" source="n12TIJvR7vaUISz7xpl9-69" target="53"><mxGeometry relative="1" as="geometry"/></mxCell><mxCell id="80" style="edgeStyle=orthogonalEdgeStyle;rounded=0;orthogonalLoop=1;jettySize=auto;html=1;exitX=0;exitY=0.5;exitDx=0;exitDy=0;entryX=0.5;entryY=0;entryDx=0;entryDy=0;entryPerimeter=0;" edge="1" parent="1" source="n12TIJvR7vaUISz7xpl9-69" target="11"><mxGeometry relative="1" as="geometry"/></mxCell><mxCell id="n12TIJvR7vaUISz7xpl9-69" value="tR++" style="whiteSpace=wrap;html=1;fontFamily=jetBrain mono;strokeWidth=2;" parent="1" vertex="1"><mxGeometry x="430" y="392" width="50" height="17" as="geometry"/></mxCell><mxCell id="69" value="freeC" style="shape=parallelogram;html=1;strokeWidth=2;perimeter=parallelogramPerimeter;whiteSpace=wrap;rounded=1;arcSize=12;size=0.23;fontFamily=jetBrain mono;" parent="1" vertex="1"><mxGeometry x="1100" y="332" width="100" height="60" as="geometry"/></mxCell><mxCell id="72" style="rounded=0;orthogonalLoop=1;jettySize=auto;html=1;exitX=1;exitY=0.5;exitDx=0;exitDy=0;entryX=0;entryY=0.5;entryDx=0;entryDy=0;edgeStyle=orthogonalEdgeStyle;" parent="1" source="71" target="34" edge="1"><mxGeometry relative="1" as="geometry"><Array as="points"><mxPoint x="700" y="319"/><mxPoint x="700" y="319"/></Array></mxGeometry></mxCell><mxCell id="I2d7XPufysfukBxukfIx-72" style="rounded=0;orthogonalLoop=1;jettySize=auto;html=1;exitX=1;exitY=0;exitDx=0;exitDy=0;entryX=0.25;entryY=0;entryDx=0;entryDy=0;dashed=1;dashPattern=1 1;fontFamily=jetBrain mono;" parent="1" source="71" target="69" edge="1"><mxGeometry relative="1" as="geometry"/></mxCell><mxCell id="71" value="freeC.add[iC]" style="rounded=1;whiteSpace=wrap;html=1;absoluteArcSize=1;arcSize=14;strokeWidth=2;fontFamily=jetBrain mono;" parent="1" vertex="1"><mxGeometry x="535" y="308" width="90" height="22" as="geometry"/></mxCell><mxCell id="I2d7XPufysfukBxukfIx-92" style="edgeStyle=orthogonalEdgeStyle;rounded=0;orthogonalLoop=1;jettySize=auto;html=1;exitX=0.5;exitY=1;exitDx=0;exitDy=0;entryX=0.5;entryY=0;entryDx=0;entryDy=0;entryPerimeter=0;fontFamily=jetBrain mono;" parent="1" source="I2d7XPufysfukBxukfIx-73" target="11" edge="1"><mxGeometry relative="1" as="geometry"/></mxCell><mxCell id="I2d7XPufysfukBxukfIx-73" value="&lt;span&gt;get the first nonzero in column iC ma[][iC];&lt;/span&gt;&lt;br&gt;&lt;span&gt;record the row it's in as tR...&lt;/span&gt;" style="whiteSpace=wrap;html=1;rounded=1;fontFamily=jetBrain mono;strokeWidth=2;arcSize=14;" parent="1" vertex="1"><mxGeometry x="215" y="330" width="250" height="40" as="geometry"/></mxCell><mxCell id="I2d7XPufysfukBxukfIx-79" style="edgeStyle=none;rounded=0;orthogonalLoop=1;jettySize=auto;html=1;exitX=0.5;exitY=1;exitDx=0;exitDy=0;exitPerimeter=0;entryX=0.5;entryY=0;entryDx=0;entryDy=0;" parent="1" source="I2d7XPufysfukBxukfIx-77" target="I2d7XPufysfukBxukfIx-73" edge="1"><mxGeometry relative="1" as="geometry"/></mxCell><mxCell id="I2d7XPufysfukBxukfIx-81" value="yes" style="edgeStyle=none;rounded=0;orthogonalLoop=1;jettySize=auto;html=1;fontFamily=jetBrain mono;" parent="1" source="I2d7XPufysfukBxukfIx-77" target="I2d7XPufysfukBxukfIx-73" edge="1"><mxGeometry relative="1" as="geometry"/></mxCell><mxCell id="I2d7XPufysfukBxukfIx-85" value="no" style="edgeStyle=orthogonalEdgeStyle;rounded=0;orthogonalLoop=1;jettySize=auto;html=1;entryX=1;entryY=0.5;entryDx=0;entryDy=0;entryPerimeter=0;exitX=0;exitY=0.5;exitDx=0;exitDy=0;exitPerimeter=0;" parent="1" source="I2d7XPufysfukBxukfIx-77" target="I2d7XPufysfukBxukfIx-84" edge="1"><mxGeometry relative="1" as="geometry"><Array as="points"><mxPoint x="240" y="300"/></Array></mxGeometry></mxCell><mxCell id="I2d7XPufysfukBxukfIx-77" value="topR &amp;lt; ro&lt;br&gt;enough rows" style="strokeWidth=2;html=1;shape=mxgraph.flowchart.decision;whiteSpace=wrap;fontFamily=jetBrain mono;" parent="1" vertex="1"><mxGeometry x="240" y="260" width="200" height="40" as="geometry"/></mxCell><mxCell id="I2d7XPufysfukBxukfIx-90" value="no" style="edgeStyle=orthogonalEdgeStyle;rounded=0;orthogonalLoop=1;jettySize=auto;html=1;exitX=0.5;exitY=0;exitDx=0;exitDy=0;exitPerimeter=0;entryX=0;entryY=0.5;entryDx=0;entryDy=0;" parent="1" source="I2d7XPufysfukBxukfIx-84" target="7" edge="1"><mxGeometry x="-0.6935" relative="1" as="geometry"><Array as="points"><mxPoint x="60" y="209"/></Array><mxPoint as="offset"/></mxGeometry></mxCell><mxCell id="I2d7XPufysfukBxukfIx-91" value="yes" style="edgeStyle=orthogonalEdgeStyle;rounded=0;orthogonalLoop=1;jettySize=auto;html=1;exitX=0;exitY=0.5;exitDx=0;exitDy=0;exitPerimeter=0;entryX=0.5;entryY=1;entryDx=0;entryDy=0;" parent="1" source="I2d7XPufysfukBxukfIx-84" target="I2d7XPufysfukBxukfIx-86" edge="1"><mxGeometry relative="1" as="geometry"/></mxCell><mxCell id="I2d7XPufysfukBxukfIx-84" value="iC &amp;lt; co - 1&lt;br&gt;no a constant" style="strokeWidth=2;html=1;shape=mxgraph.flowchart.decision;whiteSpace=wrap;fontFamily=jetBrain mono;" parent="1" vertex="1"><mxGeometry x="-40" y="280" width="200" height="40" as="geometry"/></mxCell><mxCell id="I2d7XPufysfukBxukfIx-89" style="edgeStyle=orthogonalEdgeStyle;rounded=0;orthogonalLoop=1;jettySize=auto;html=1;exitX=1;exitY=0.5;exitDx=0;exitDy=0;entryX=0;entryY=0.5;entryDx=0;entryDy=0;" parent="1" source="I2d7XPufysfukBxukfIx-86" target="7" edge="1"><mxGeometry relative="1" as="geometry"/></mxCell><mxCell id="I2d7XPufysfukBxukfIx-86" value="&lt;div style=&quot;background-color: rgb(255, 255, 255); color: rgb(0, 0, 0); font-size: 9.8pt;&quot;&gt;&lt;span style=&quot;color: #660e7a ; font-weight: bold&quot;&gt;freeC&lt;/span&gt;.add(iC)&lt;/div&gt;&lt;div style=&quot;background-color: rgb(255, 255, 255); color: rgb(0, 0, 0); font-size: 9.8pt;&quot;&gt;it's a free var&lt;/div&gt;" style="whiteSpace=wrap;html=1;strokeWidth=2;fontFamily=jetBrain mono;" parent="1" vertex="1"><mxGeometry x="-140" y="179" width="140" height="60" as="geometry"/></mxCell><mxCell id="I2d7XPufysfukBxukfIx-94" value="yes" style="edgeStyle=orthogonalEdgeStyle;rounded=0;orthogonalLoop=1;jettySize=auto;html=1;fontFamily=jetBrain mono;entryX=0.5;entryY=1;entryDx=0;entryDy=0;entryPerimeter=0;" parent="1" source="I2d7XPufysfukBxukfIx-93" target="I2d7XPufysfukBxukfIx-95" edge="1"><mxGeometry relative="1" as="geometry"><mxPoint x="540" y="370" as="targetPoint"/></mxGeometry></mxCell><mxCell id="79" value="no" style="rounded=0;orthogonalLoop=1;jettySize=auto;html=1;exitX=0;exitY=0.5;exitDx=0;exitDy=0;exitPerimeter=0;entryX=1;entryY=0.5;entryDx=0;entryDy=0;edgeStyle=orthogonalEdgeStyle;fontFamily=jetBrain mono;" edge="1" parent="1" source="I2d7XPufysfukBxukfIx-93" target="n12TIJvR7vaUISz7xpl9-69"><mxGeometry relative="1" as="geometry"/></mxCell><mxCell id="I2d7XPufysfukBxukfIx-93" value="last row&lt;br&gt;tR = ro - 1" style="strokeWidth=2;html=1;shape=mxgraph.flowchart.decision;whiteSpace=wrap;fontFamily=jetBrain mono;" parent="1" vertex="1"><mxGeometry x="530" y="450" width="100" height="51" as="geometry"/></mxCell><mxCell id="I2d7XPufysfukBxukfIx-97" value="yes" style="edgeStyle=orthogonalEdgeStyle;rounded=0;orthogonalLoop=1;jettySize=auto;html=1;exitX=1;exitY=0.5;exitDx=0;exitDy=0;exitPerimeter=0;fontFamily=jetBrain mono;entryX=0.5;entryY=1;entryDx=0;entryDy=0;" parent="1" source="I2d7XPufysfukBxukfIx-95" target="34" edge="1"><mxGeometry relative="1" as="geometry"><Array as="points"><mxPoint x="770" y="391"/></Array><mxPoint x="770" y="350" as="targetPoint"/></mxGeometry></mxCell><mxCell id="I2d7XPufysfukBxukfIx-95" value="last column&lt;br&gt;iC = co - 1" style="strokeWidth=2;html=1;shape=mxgraph.flowchart.decision;whiteSpace=wrap;fontFamily=jetBrain mono;" parent="1" vertex="1"><mxGeometry x="530" y="365" width="100" height="52" as="geometry"/></mxCell></root></mxGraphModel></diagram><diagram id="bCV4iEPya6_vHu6iGRoR" name="Page-2"><mxGraphModel dx="623" dy="456" grid="1" gridSize="10" guides="1" tooltips="1" connect="1" arrows="1" fold="1" page="1" pageScale="1" pageWidth="850" pageHeight="1100" math="0" shadow="0"><root><mxCell id="vf94eGCY2TrTfSmEp2eQ-0"/><mxCell id="vf94eGCY2TrTfSmEp2eQ-1" parent="vf94eGCY2TrTfSmEp2eQ-0"/><mxCell id="PrqEuKRVqLRRLouQ6s94-3" value="" style="edgeStyle=orthogonalEdgeStyle;rounded=0;orthogonalLoop=1;jettySize=auto;html=1;fontFamily=jetBrain mono;" parent="vf94eGCY2TrTfSmEp2eQ-1" source="vf94eGCY2TrTfSmEp2eQ-2" target="PrqEuKRVqLRRLouQ6s94-2" edge="1"><mxGeometry relative="1" as="geometry"/></mxCell><mxCell id="vf94eGCY2TrTfSmEp2eQ-2" value="backward phase" style="strokeWidth=2;html=1;shape=mxgraph.flowchart.start_1;whiteSpace=wrap;fontFamily=jetBrain mono;" parent="vf94eGCY2TrTfSmEp2eQ-1" vertex="1"><mxGeometry x="325" y="70" width="100" height="30" as="geometry"/></mxCell><mxCell id="PrqEuKRVqLRRLouQ6s94-0" value="piC" style="shape=parallelogram;html=1;strokeWidth=2;perimeter=parallelogramPerimeter;whiteSpace=wrap;rounded=1;arcSize=12;size=0.23;fontFamily=jetBrain mono;" parent="vf94eGCY2TrTfSmEp2eQ-1" vertex="1"><mxGeometry x="630" y="140" width="100" height="40" as="geometry"/></mxCell><mxCell id="JQlQbAU7i4gHFXUsw-5m-1" value="" style="edgeStyle=none;rounded=0;orthogonalLoop=1;jettySize=auto;html=1;fontFamily=jetBrain mono;" parent="vf94eGCY2TrTfSmEp2eQ-1" source="PrqEuKRVqLRRLouQ6s94-2" target="JQlQbAU7i4gHFXUsw-5m-0" edge="1"><mxGeometry relative="1" as="geometry"/></mxCell><mxCell id="7MSPTXoFJPhS18ylTzpb-2" style="edgeStyle=none;rounded=0;orthogonalLoop=1;jettySize=auto;html=1;exitX=1;exitY=0;exitDx=0;exitDy=0;entryX=0;entryY=1;entryDx=0;entryDy=0;dashed=1;dashPattern=1 1;fontFamily=jetBrain mono;" parent="vf94eGCY2TrTfSmEp2eQ-1" source="PrqEuKRVqLRRLouQ6s94-2" target="7MSPTXoFJPhS18ylTzpb-1" edge="1"><mxGeometry relative="1" as="geometry"/></mxCell><mxCell id="7MSPTXoFJPhS18ylTzpb-3" style="edgeStyle=none;rounded=0;orthogonalLoop=1;jettySize=auto;html=1;exitX=1;exitY=0;exitDx=0;exitDy=0;entryX=0;entryY=1;entryDx=0;entryDy=0;dashed=1;dashPattern=1 1;fontFamily=jetBrain mono;" parent="vf94eGCY2TrTfSmEp2eQ-1" source="PrqEuKRVqLRRLouQ6s94-2" target="7MSPTXoFJPhS18ylTzpb-0" edge="1"><mxGeometry relative="1" as="geometry"/></mxCell><mxCell id="PrqEuKRVqLRRLouQ6s94-2" value="pivot = piC.length;&lt;br&gt;piNow = pivot - 1&lt;br&gt;which is the last pivot" style="whiteSpace=wrap;html=1;fontFamily=jetBrain mono;strokeWidth=2;" parent="vf94eGCY2TrTfSmEp2eQ-1" vertex="1"><mxGeometry x="315" y="120" width="120" height="60" as="geometry"/></mxCell><mxCell id="JQlQbAU7i4gHFXUsw-5m-3" value="" style="edgeStyle=none;rounded=0;orthogonalLoop=1;jettySize=auto;html=1;fontFamily=jetBrain mono;" parent="vf94eGCY2TrTfSmEp2eQ-1" source="JQlQbAU7i4gHFXUsw-5m-0" target="JQlQbAU7i4gHFXUsw-5m-2" edge="1"><mxGeometry relative="1" as="geometry"/></mxCell><mxCell id="7MSPTXoFJPhS18ylTzpb-5" style="edgeStyle=none;rounded=0;orthogonalLoop=1;jettySize=auto;html=1;exitX=1;exitY=0;exitDx=0;exitDy=0;entryX=0;entryY=1;entryDx=0;entryDy=0;dashed=1;dashPattern=1 1;fontFamily=jetBrain mono;" parent="vf94eGCY2TrTfSmEp2eQ-1" source="JQlQbAU7i4gHFXUsw-5m-0" target="7MSPTXoFJPhS18ylTzpb-4" edge="1"><mxGeometry relative="1" as="geometry"/></mxCell><mxCell id="JQlQbAU7i4gHFXUsw-5m-0" value="&lt;span style=&quot;color: rgb(0 , 0 , 0) ; font-family: &amp;#34;jetbrain mono&amp;#34; ; font-size: 12px ; font-style: normal ; font-weight: 400 ; letter-spacing: normal ; text-align: center ; text-indent: 0px ; text-transform: none ; word-spacing: 0px ; background-color: rgb(248 , 249 , 250) ; display: inline ; float: none&quot;&gt;check upwards 1-by-1 from this pivot:&lt;br&gt;checkR = pNow -1&lt;/span&gt;" style="whiteSpace=wrap;html=1;fontFamily=jetBrain mono;strokeWidth=2;" parent="vf94eGCY2TrTfSmEp2eQ-1" vertex="1"><mxGeometry x="315" y="200" width="120" height="60" as="geometry"/></mxCell><mxCell id="7MSPTXoFJPhS18ylTzpb-9" value="yes" style="edgeStyle=orthogonalEdgeStyle;rounded=0;orthogonalLoop=1;jettySize=auto;html=1;fontFamily=jetBrain mono;" parent="vf94eGCY2TrTfSmEp2eQ-1" source="JQlQbAU7i4gHFXUsw-5m-2" target="7MSPTXoFJPhS18ylTzpb-8" edge="1"><mxGeometry relative="1" as="geometry"/></mxCell><mxCell id="IhA67qwSLwTdatdP8DCX-0" style="edgeStyle=orthogonalEdgeStyle;rounded=0;orthogonalLoop=1;jettySize=auto;html=1;exitX=0;exitY=0.5;exitDx=0;exitDy=0;entryX=0.5;entryY=0;entryDx=0;entryDy=0;fontFamily=jetBrain mono;" parent="vf94eGCY2TrTfSmEp2eQ-1" source="JQlQbAU7i4gHFXUsw-5m-2" target="7MSPTXoFJPhS18ylTzpb-17" edge="1"><mxGeometry relative="1" as="geometry"><Array as="points"><mxPoint x="250" y="295"/><mxPoint x="250" y="580"/></Array></mxGeometry></mxCell><mxCell id="JQlQbAU7i4gHFXUsw-5m-2" value="checkR &amp;gt;= 0" style="rhombus;whiteSpace=wrap;html=1;fontFamily=jetBrain mono;strokeWidth=2;" parent="vf94eGCY2TrTfSmEp2eQ-1" vertex="1"><mxGeometry x="292.5" y="280" width="165" height="30" as="geometry"/></mxCell><mxCell id="7MSPTXoFJPhS18ylTzpb-0" value="piNow" style="shape=parallelogram;html=1;strokeWidth=2;perimeter=parallelogramPerimeter;whiteSpace=wrap;rounded=1;arcSize=12;size=0.23;fontFamily=jetBrain mono;" parent="vf94eGCY2TrTfSmEp2eQ-1" vertex="1"><mxGeometry x="630" y="250" width="100" height="20" as="geometry"/></mxCell><mxCell id="7MSPTXoFJPhS18ylTzpb-1" value="pivot" style="shape=parallelogram;html=1;strokeWidth=2;perimeter=parallelogramPerimeter;whiteSpace=wrap;rounded=1;arcSize=12;size=0.23;fontFamily=jetBrain mono;" parent="vf94eGCY2TrTfSmEp2eQ-1" vertex="1"><mxGeometry x="630" y="210" width="100" height="20" as="geometry"/></mxCell><mxCell id="7MSPTXoFJPhS18ylTzpb-4" value="checkR" style="shape=parallelogram;html=1;strokeWidth=2;perimeter=parallelogramPerimeter;whiteSpace=wrap;rounded=1;arcSize=12;size=0.23;fontFamily=jetBrain mono;" parent="vf94eGCY2TrTfSmEp2eQ-1" vertex="1"><mxGeometry x="630" y="300" width="100" height="20" as="geometry"/></mxCell><mxCell id="7MSPTXoFJPhS18ylTzpb-11" value="yes" style="edgeStyle=orthogonalEdgeStyle;rounded=0;orthogonalLoop=1;jettySize=auto;html=1;fontFamily=jetBrain mono;" parent="vf94eGCY2TrTfSmEp2eQ-1" source="7MSPTXoFJPhS18ylTzpb-8" target="7MSPTXoFJPhS18ylTzpb-10" edge="1"><mxGeometry relative="1" as="geometry"/></mxCell><mxCell id="IhA67qwSLwTdatdP8DCX-1" value="no" style="edgeStyle=orthogonalEdgeStyle;rounded=0;orthogonalLoop=1;jettySize=auto;html=1;exitX=0;exitY=0.5;exitDx=0;exitDy=0;fontFamily=jetBrain mono;entryX=0.5;entryY=0;entryDx=0;entryDy=0;" parent="vf94eGCY2TrTfSmEp2eQ-1" source="7MSPTXoFJPhS18ylTzpb-8" target="7MSPTXoFJPhS18ylTzpb-12" edge="1"><mxGeometry relative="1" as="geometry"><mxPoint x="280" y="360" as="targetPoint"/><Array as="points"><mxPoint x="273" y="360"/><mxPoint x="273" y="490"/></Array></mxGeometry></mxCell><mxCell id="7MSPTXoFJPhS18ylTzpb-8" value="ve[checkR][piC] ≠ 0" style="rhombus;whiteSpace=wrap;html=1;fontFamily=jetBrain mono;strokeWidth=2;" parent="vf94eGCY2TrTfSmEp2eQ-1" vertex="1"><mxGeometry x="292.5" y="340" width="165" height="40" as="geometry"/></mxCell><mxCell id="7MSPTXoFJPhS18ylTzpb-13" value="" style="edgeStyle=orthogonalEdgeStyle;rounded=0;orthogonalLoop=1;jettySize=auto;html=1;fontFamily=jetBrain mono;" parent="vf94eGCY2TrTfSmEp2eQ-1" source="7MSPTXoFJPhS18ylTzpb-10" target="7MSPTXoFJPhS18ylTzpb-12" edge="1"><mxGeometry relative="1" as="geometry"/></mxCell><mxCell id="i_KY0V3s4kolo1C5vZI3-7" style="rounded=0;orthogonalLoop=1;jettySize=auto;html=1;exitX=1;exitY=0;exitDx=0;exitDy=0;entryX=0;entryY=1;entryDx=0;entryDy=0;fontFamily=jetBrain mono;dashed=1;dashPattern=1 1;" parent="vf94eGCY2TrTfSmEp2eQ-1" source="7MSPTXoFJPhS18ylTzpb-10" target="i_KY0V3s4kolo1C5vZI3-6" edge="1"><mxGeometry relative="1" as="geometry"/></mxCell><mxCell id="7MSPTXoFJPhS18ylTzpb-10" value="subtract row [checkR] &lt;br&gt;by ve[checkR][piC[piNow]] * row [checkR]" style="whiteSpace=wrap;html=1;fontFamily=jetBrain mono;strokeWidth=2;" parent="vf94eGCY2TrTfSmEp2eQ-1" vertex="1"><mxGeometry x="315" y="400" width="120" height="70" as="geometry"/></mxCell><mxCell id="7MSPTXoFJPhS18ylTzpb-15" value="no" style="edgeStyle=orthogonalEdgeStyle;rounded=0;orthogonalLoop=1;jettySize=auto;html=1;fontFamily=jetBrain mono;" parent="vf94eGCY2TrTfSmEp2eQ-1" source="7MSPTXoFJPhS18ylTzpb-12" target="7MSPTXoFJPhS18ylTzpb-14" edge="1"><mxGeometry relative="1" as="geometry"/></mxCell><mxCell id="7MSPTXoFJPhS18ylTzpb-18" value="yes&lt;br&gt;break" style="edgeStyle=orthogonalEdgeStyle;rounded=0;orthogonalLoop=1;jettySize=auto;html=1;fontFamily=jetBrain mono;" parent="vf94eGCY2TrTfSmEp2eQ-1" source="7MSPTXoFJPhS18ylTzpb-12" target="7MSPTXoFJPhS18ylTzpb-17" edge="1"><mxGeometry relative="1" as="geometry"/></mxCell><mxCell id="7MSPTXoFJPhS18ylTzpb-12" value="checkR &amp;lt; 1&lt;br&gt;done for this pivot" style="rhombus;whiteSpace=wrap;html=1;fontFamily=jetBrain mono;strokeWidth=2;" parent="vf94eGCY2TrTfSmEp2eQ-1" vertex="1"><mxGeometry x="282.5" y="490" width="185" height="50" as="geometry"/></mxCell><mxCell id="7MSPTXoFJPhS18ylTzpb-16" style="edgeStyle=orthogonalEdgeStyle;rounded=0;orthogonalLoop=1;jettySize=auto;html=1;exitX=0.5;exitY=0;exitDx=0;exitDy=0;entryX=1;entryY=0.5;entryDx=0;entryDy=0;fontFamily=jetBrain mono;" parent="vf94eGCY2TrTfSmEp2eQ-1" source="7MSPTXoFJPhS18ylTzpb-14" target="7MSPTXoFJPhS18ylTzpb-8" edge="1"><mxGeometry relative="1" as="geometry"/></mxCell><mxCell id="i_KY0V3s4kolo1C5vZI3-8" style="edgeStyle=none;rounded=0;orthogonalLoop=1;jettySize=auto;html=1;exitX=0;exitY=0;exitDx=0;exitDy=0;entryX=0;entryY=1;entryDx=0;entryDy=0;dashed=1;dashPattern=1 1;fontFamily=jetBrain mono;" parent="vf94eGCY2TrTfSmEp2eQ-1" source="7MSPTXoFJPhS18ylTzpb-14" target="7MSPTXoFJPhS18ylTzpb-4" edge="1"><mxGeometry relative="1" as="geometry"/></mxCell><mxCell id="7MSPTXoFJPhS18ylTzpb-14" value="checkR++&lt;br&gt;check the row above" style="whiteSpace=wrap;html=1;fontFamily=jetBrain mono;strokeWidth=2;" parent="vf94eGCY2TrTfSmEp2eQ-1" vertex="1"><mxGeometry x="480" y="405" width="120" height="60" as="geometry"/></mxCell><mxCell id="7MSPTXoFJPhS18ylTzpb-22" value="no" style="edgeStyle=orthogonalEdgeStyle;rounded=0;orthogonalLoop=1;jettySize=auto;html=1;fontFamily=jetBrain mono;" parent="vf94eGCY2TrTfSmEp2eQ-1" source="7MSPTXoFJPhS18ylTzpb-17" target="7MSPTXoFJPhS18ylTzpb-21" edge="1"><mxGeometry relative="1" as="geometry"/></mxCell><mxCell id="7MSPTXoFJPhS18ylTzpb-25" value="" style="edgeStyle=orthogonalEdgeStyle;rounded=0;orthogonalLoop=1;jettySize=auto;html=1;fontFamily=jetBrain mono;" parent="vf94eGCY2TrTfSmEp2eQ-1" source="7MSPTXoFJPhS18ylTzpb-17" target="7MSPTXoFJPhS18ylTzpb-24" edge="1"><mxGeometry relative="1" as="geometry"/></mxCell><mxCell id="7MSPTXoFJPhS18ylTzpb-17" value="piNow &amp;lt; 2&lt;br&gt;it's the one but last pivot" style="rhombus;whiteSpace=wrap;html=1;fontFamily=jetBrain mono;strokeWidth=2;" parent="vf94eGCY2TrTfSmEp2eQ-1" vertex="1"><mxGeometry x="287.5" y="580" width="175" height="80" as="geometry"/></mxCell><mxCell id="7MSPTXoFJPhS18ylTzpb-23" style="edgeStyle=orthogonalEdgeStyle;rounded=0;orthogonalLoop=1;jettySize=auto;html=1;exitX=0.5;exitY=0;exitDx=0;exitDy=0;entryX=0;entryY=0.5;entryDx=0;entryDy=0;fontFamily=jetBrain mono;" parent="vf94eGCY2TrTfSmEp2eQ-1" source="7MSPTXoFJPhS18ylTzpb-21" target="JQlQbAU7i4gHFXUsw-5m-0" edge="1"><mxGeometry relative="1" as="geometry"/></mxCell><mxCell id="i_KY0V3s4kolo1C5vZI3-9" style="edgeStyle=none;rounded=0;orthogonalLoop=1;jettySize=auto;html=1;exitX=1;exitY=0;exitDx=0;exitDy=0;entryX=0;entryY=1;entryDx=0;entryDy=0;dashed=1;dashPattern=1 1;fontFamily=jetBrain mono;" parent="vf94eGCY2TrTfSmEp2eQ-1" source="7MSPTXoFJPhS18ylTzpb-21" target="7MSPTXoFJPhS18ylTzpb-0" edge="1"><mxGeometry relative="1" as="geometry"/></mxCell><mxCell id="7MSPTXoFJPhS18ylTzpb-21" value="piNow--&lt;br&gt;check the pivot before" style="whiteSpace=wrap;html=1;fontFamily=jetBrain mono;strokeWidth=2;" parent="vf94eGCY2TrTfSmEp2eQ-1" vertex="1"><mxGeometry x="110" y="590" width="120" height="60" as="geometry"/></mxCell><mxCell id="7MSPTXoFJPhS18ylTzpb-27" style="edgeStyle=orthogonalEdgeStyle;rounded=0;orthogonalLoop=1;jettySize=auto;html=1;exitX=0.5;exitY=1;exitDx=0;exitDy=0;entryX=0.5;entryY=0;entryDx=0;entryDy=0;entryPerimeter=0;fontFamily=jetBrain mono;" parent="vf94eGCY2TrTfSmEp2eQ-1" source="7MSPTXoFJPhS18ylTzpb-24" target="7MSPTXoFJPhS18ylTzpb-26" edge="1"><mxGeometry relative="1" as="geometry"/></mxCell><mxCell id="7MSPTXoFJPhS18ylTzpb-24" value="return ma" style="shape=parallelogram;perimeter=parallelogramPerimeter;whiteSpace=wrap;html=1;fixedSize=1;fontFamily=jetBrain mono;strokeWidth=2;" parent="vf94eGCY2TrTfSmEp2eQ-1" vertex="1"><mxGeometry x="315" y="680" width="120" height="20" as="geometry"/></mxCell><mxCell id="7MSPTXoFJPhS18ylTzpb-26" value="end" style="strokeWidth=2;html=1;shape=mxgraph.flowchart.terminator;whiteSpace=wrap;fontFamily=jetBrain mono;" parent="vf94eGCY2TrTfSmEp2eQ-1" vertex="1"><mxGeometry x="325" y="730" width="100" height="20" as="geometry"/></mxCell><mxCell id="i_KY0V3s4kolo1C5vZI3-0" style="edgeStyle=orthogonalEdgeStyle;rounded=0;orthogonalLoop=1;jettySize=auto;html=1;exitX=0;exitY=0.5;exitDx=0;exitDy=0;entryX=1;entryY=0.25;entryDx=0;entryDy=0;fontFamily=jetBrain mono;" parent="vf94eGCY2TrTfSmEp2eQ-1" source="i_KY0V3s4kolo1C5vZI3-3" target="i_KY0V3s4kolo1C5vZI3-4" edge="1"><mxGeometry relative="1" as="geometry"><Array as="points"><mxPoint x="650" y="630"/><mxPoint x="650" y="556"/></Array></mxGeometry></mxCell><mxCell id="i_KY0V3s4kolo1C5vZI3-1" style="edgeStyle=orthogonalEdgeStyle;rounded=0;orthogonalLoop=1;jettySize=auto;html=1;exitX=0;exitY=0.5;exitDx=0;exitDy=0;entryX=1;entryY=0.5;entryDx=0;entryDy=0;fontFamily=jetBrain mono;" parent="vf94eGCY2TrTfSmEp2eQ-1" source="i_KY0V3s4kolo1C5vZI3-3" target="i_KY0V3s4kolo1C5vZI3-5" edge="1"><mxGeometry relative="1" as="geometry"/></mxCell><mxCell id="i_KY0V3s4kolo1C5vZI3-2" style="edgeStyle=orthogonalEdgeStyle;rounded=0;orthogonalLoop=1;jettySize=auto;html=1;exitX=0;exitY=0.5;exitDx=0;exitDy=0;entryX=1;entryY=0.75;entryDx=0;entryDy=0;fontFamily=jetBrain mono;" parent="vf94eGCY2TrTfSmEp2eQ-1" source="i_KY0V3s4kolo1C5vZI3-3" target="i_KY0V3s4kolo1C5vZI3-6" edge="1"><mxGeometry relative="1" as="geometry"/></mxCell><mxCell id="i_KY0V3s4kolo1C5vZI3-3" value="this" style="shape=parallelogram;html=1;strokeWidth=2;perimeter=parallelogramPerimeter;whiteSpace=wrap;rounded=1;arcSize=12;size=0.23;fontFamily=jetBrain mono;" parent="vf94eGCY2TrTfSmEp2eQ-1" vertex="1"><mxGeometry x="680" y="600" width="100" height="60" as="geometry"/></mxCell><mxCell id="i_KY0V3s4kolo1C5vZI3-4" value="ro" style="shape=parallelogram;html=1;strokeWidth=2;perimeter=parallelogramPerimeter;whiteSpace=wrap;rounded=1;arcSize=12;size=0.23;fontFamily=jetBrain mono;" parent="vf94eGCY2TrTfSmEp2eQ-1" vertex="1"><mxGeometry x="520" y="550" width="100" height="20" as="geometry"/></mxCell><mxCell id="i_KY0V3s4kolo1C5vZI3-5" value="co" style="shape=parallelogram;html=1;strokeWidth=2;perimeter=parallelogramPerimeter;whiteSpace=wrap;rounded=1;arcSize=12;size=0.23;fontFamily=jetBrain mono;" parent="vf94eGCY2TrTfSmEp2eQ-1" vertex="1"><mxGeometry x="510" y="590" width="100" height="20" as="geometry"/></mxCell><mxCell id="i_KY0V3s4kolo1C5vZI3-6" value="ma" style="shape=parallelogram;html=1;strokeWidth=2;perimeter=parallelogramPerimeter;whiteSpace=wrap;rounded=1;arcSize=12;size=0.23;fontFamily=jetBrain mono;" parent="vf94eGCY2TrTfSmEp2eQ-1" vertex="1"><mxGeometry x="510" y="630" width="100" height="20" as="geometry"/></mxCell></root></mxGraphModel></diagram></mxfile>